<svg xmlns="http://www.w3.org/2000/svg" width="60" height="21" viewBox="0 0 60 21" fill="none">
<path d="M22.2722 11.2574V15.215H19.7178V8.17926H22.1426V9.51679H22.2166C22.3709 9.07095 22.6424 8.72129 23.0311 8.46784C23.4229 8.21438 23.8795 8.08765 24.4008 8.08765C24.9037 8.08765 25.3402 8.20216 25.7104 8.43119C26.0837 8.65717 26.3722 8.96865 26.5758 9.36563C26.7825 9.76262 26.8843 10.2161 26.8812 10.7261V15.215H24.3268V11.2574C24.3299 10.9093 24.2404 10.636 24.0584 10.4375C23.8795 10.239 23.6296 10.1398 23.3087 10.1398C23.099 10.1398 22.9154 10.1856 22.7581 10.2772C22.6038 10.3657 22.485 10.494 22.4017 10.6619C22.3184 10.8268 22.2753 11.0253 22.2722 11.2574Z" fill="#FAFAFA"/>
<path d="M28.4198 15.215V13.8225L31.5295 10.1398V10.1031H28.5309V8.17926H34.5467V9.71834L31.7146 13.2546V13.2912H34.6577V15.215H28.4198Z" fill="#FAFAFA"/>
<path d="M39.4762 15.3433C38.7172 15.3433 38.0632 15.1998 37.5141 14.9127C36.968 14.6226 36.5469 14.2073 36.2508 13.6668C35.9577 13.1232 35.8112 12.4728 35.8112 11.7155C35.8112 10.9887 35.9592 10.3535 36.2554 9.80995C36.5516 9.26639 36.9696 8.84344 37.5095 8.54113C38.0493 8.23881 38.6864 8.08765 39.4206 8.08765C39.9574 8.08765 40.4433 8.1701 40.8783 8.335C41.3133 8.4999 41.685 8.73962 41.9935 9.05415C42.302 9.36563 42.5396 9.74429 42.7062 10.1901C42.8728 10.636 42.9561 11.1383 42.9561 11.6972V12.2835H36.6071V10.891H40.6053C40.6022 10.6894 40.5497 10.5123 40.4479 10.3596C40.3492 10.2039 40.215 10.0833 40.0453 9.99775C39.8788 9.90919 39.689 9.86492 39.4762 9.86492C39.2695 9.86492 39.0797 9.90919 38.907 9.99775C38.7342 10.0833 38.5954 10.2024 38.4905 10.355C38.3887 10.5077 38.3347 10.6864 38.3285 10.891V12.3934C38.3285 12.6194 38.3763 12.8209 38.472 12.998C38.5676 13.1752 38.7049 13.3141 38.8838 13.4149C39.0628 13.5156 39.2787 13.566 39.5317 13.566C39.7075 13.566 39.868 13.5416 40.0129 13.4927C40.161 13.4439 40.2875 13.3736 40.3924 13.282C40.4973 13.1874 40.5744 13.0744 40.6238 12.9431H42.9561C42.8758 13.4317 42.6861 13.8561 42.3869 14.2165C42.0876 14.5738 41.6912 14.8517 41.1976 15.0501C40.7071 15.2456 40.1333 15.3433 39.4762 15.3433Z" fill="#FAFAFA"/>
<path d="M46.7564 11.2574V15.215H44.202V8.17926H46.6268V9.51679H46.7009C46.8551 9.07095 47.1266 8.72129 47.5153 8.46784C47.9071 8.21438 48.3637 8.08765 48.8851 8.08765C49.3879 8.08765 49.8245 8.20216 50.1947 8.43119C50.568 8.65717 50.8564 8.96865 51.06 9.36563C51.2667 9.76262 51.3685 10.2161 51.3654 10.7261V15.215H48.811V11.2574C48.8141 10.9093 48.7247 10.636 48.5426 10.4375C48.3637 10.239 48.1138 10.1398 47.793 10.1398C47.5832 10.1398 47.3996 10.1856 47.2423 10.2772C47.0881 10.3657 46.9693 10.494 46.886 10.6619C46.8027 10.8268 46.7595 11.0253 46.7564 11.2574Z" fill="#FAFAFA"/>
<path d="M59.3271 10.4696H56.9763C56.964 10.326 56.9131 10.2024 56.8236 10.0985C56.7341 9.9947 56.6184 9.9153 56.4765 9.86034C56.3377 9.80231 56.1835 9.7733 56.0138 9.7733C55.7947 9.7733 55.6066 9.813 55.4492 9.8924C55.2919 9.9718 55.2148 10.0848 55.2178 10.2314C55.2148 10.3352 55.2595 10.4314 55.352 10.5199C55.4477 10.6085 55.6312 10.6772 55.9027 10.7261L57.3465 10.9826C58.0746 11.1139 58.616 11.3353 58.9708 11.6468C59.3286 11.9552 59.5091 12.369 59.5122 12.8881C59.5091 13.3889 59.3579 13.8241 59.0587 14.1936C58.7625 14.56 58.3569 14.844 57.8417 15.0456C57.3295 15.2441 56.7449 15.3433 56.0878 15.3433C55.0019 15.3433 54.152 15.1234 53.5381 14.6837C52.9272 14.244 52.5863 13.6638 52.5154 12.9431H55.0513C55.0852 13.166 55.1963 13.3385 55.3844 13.4607C55.5757 13.5798 55.8163 13.6393 56.1063 13.6393C56.3408 13.6393 56.5336 13.5996 56.6848 13.5202C56.839 13.4408 56.9177 13.3278 56.9208 13.1813C56.9177 13.0469 56.8498 12.94 56.7172 12.8606C56.5876 12.7812 56.384 12.7171 56.1063 12.6682L54.8476 12.4484C54.1227 12.3232 53.5797 12.085 53.2188 11.7338C52.8578 11.3826 52.6789 10.9307 52.682 10.3779C52.6789 9.88935 52.8084 9.47557 53.0707 9.1366C53.336 8.79458 53.7139 8.53502 54.2044 8.3579C54.698 8.17773 55.2826 8.08765 55.9582 8.08765C56.9856 8.08765 57.7954 8.29835 58.3877 8.71977C58.9831 9.14118 59.2962 9.72444 59.3271 10.4696Z" fill="#FAFAFA"/>
<path d="M18.3799 15.2161H14.3907L10.7084 7.92808L11.629 6.10608H13.777L18.3799 15.2161Z" fill="white"/>
<path d="M7.02637 15.2161H10.9717L14.6978 7.92808L13.7772 6.10608H11.6292L7.02637 15.2161Z" fill="url(#paint0_linear_162_267816)"/>
<path d="M8.25674 20.6261C6.97008 20.1462 5.79078 19.4189 4.78752 18.485C3.69615 17.469 2.83871 16.2323 2.27355 14.859C1.70839 13.4858 1.44876 12.0082 1.51232 10.5267C1.57589 9.04524 1.96116 7.59472 2.64192 6.27381C3.32269 4.9529 4.28297 3.79259 5.45745 2.87183C6.63192 1.95107 7.99303 1.29145 9.44817 0.937865C10.9033 0.584275 12.4183 0.545006 13.8902 0.822728C15.1886 1.06772 16.4264 1.5543 17.5388 2.25502L16.5993 4.11434C15.6636 3.49052 14.6091 3.06051 13.4994 2.85112C12.3219 2.62895 11.1099 2.66036 9.94576 2.94323C8.78164 3.2261 7.69276 3.7538 6.75318 4.4904C5.8136 5.22701 5.04537 6.15526 4.50076 7.21199C3.95615 8.26872 3.64793 9.42914 3.59708 10.6143C3.54622 11.7995 3.75393 12.9816 4.20606 14.0802C4.65819 15.1788 5.34414 16.1681 6.21724 16.9809C7.07246 17.7771 8.0876 18.3855 9.19617 18.7667L8.25674 20.6261Z" fill="url(#paint1_linear_162_267816)"/>
<defs>
<linearGradient id="paint0_linear_162_267816" x1="5.35783" y1="-18.3814" x2="14.9113" y2="-18.3205" gradientUnits="userSpaceOnUse">
<stop stop-color="#2DD4BF"/>
<stop offset="1" stop-color="#0077E6"/>
</linearGradient>
<linearGradient id="paint1_linear_162_267816" x1="-1.98486" y1="-53.0818" x2="17.985" y2="-52.9606" gradientUnits="userSpaceOnUse">
<stop stop-color="#2DD4BF"/>
<stop offset="1" stop-color="#0077E6"/>
</linearGradient>
</defs>
</svg>
